<svg width="50" height="50" viewBox="0 0 50 50" fill="none" xmlns="http://www.w3.org/2000/svg">
<path d="M35.5389 43.8181C33.3116 45.9772 30.8798 45.6363 28.5389 44.6136C26.0616 43.5681 23.7889 43.5227 21.1752 44.6136C17.9025 46.0227 16.1752 45.6136 14.2207 43.8181C3.12978 32.3863 4.76614 14.9772 17.3571 14.3409C20.4252 14.5 22.5616 16.0227 24.3571 16.159C27.0389 15.6136 29.607 14.0454 32.4707 14.25C35.9025 14.5227 38.4934 15.8863 40.198 18.3409C33.1071 22.5909 34.7889 31.9318 41.2889 34.5454C39.9934 37.9545 38.3116 41.3409 35.5161 43.8409L35.5389 43.8181ZM24.1298 14.2045C23.7889 9.13632 27.9025 4.9545 32.6298 4.54541C33.2889 10.409 27.3116 14.7727 24.1298 14.2045Z" fill="black"/>
</svg>
