<svg width="50" height="50" viewBox="0 0 50 50" fill="none" xmlns="http://www.w3.org/2000/svg">
<path d="M19.4858 8.01406C15.8525 9.27448 12.7191 11.6668 10.546 14.8396C8.37282 18.0125 7.27439 21.7986 7.41204 25.6418C7.54968 29.485 8.91614 33.1829 11.3107 36.1921C13.7053 39.2013 17.0017 41.3634 20.7159 42.3606C23.727 43.1376 26.8818 43.1717 29.9091 42.4601C32.6515 41.8441 35.1869 40.5265 37.267 38.6362C39.432 36.6088 41.0035 34.0296 41.8125 31.176C42.6918 28.0728 42.8483 24.8093 42.2699 21.6362H25.3608V28.6504H35.1534C34.9577 29.7691 34.5383 30.8369 33.9203 31.7897C33.3023 32.7426 32.4984 33.5609 31.5568 34.1959C30.361 34.9869 29.013 35.5191 27.5994 35.7584C26.1816 36.022 24.7274 36.022 23.3096 35.7584C21.8727 35.4613 20.5133 34.8682 19.3182 34.0169C17.3981 32.6578 15.9565 30.7269 15.1988 28.4999C14.4284 26.2311 14.4284 23.7715 15.1988 21.5027C15.7381 19.9124 16.6296 18.4644 17.8068 17.2669C19.1539 15.8713 20.8595 14.8737 22.7362 14.3836C24.613 13.8935 26.5885 13.9298 28.446 14.4885C29.8971 14.9339 31.224 15.7122 32.321 16.7612C33.4252 15.6627 34.5275 14.5614 35.6278 13.4572C36.196 12.8635 36.8153 12.2981 37.375 11.6902C35.7005 10.1319 33.7349 8.91933 31.5909 8.12201C27.6866 6.70437 23.4147 6.66627 19.4858 8.01406Z" fill="white"/>
<path d="M19.4858 8.01421C23.4144 6.66551 27.6863 6.70261 31.5909 8.11933C33.7353 8.92207 35.7 10.1405 37.3722 11.7046C36.804 12.3125 36.2046 12.8807 35.625 13.4716C34.5227 14.572 33.4214 15.6686 32.321 16.7614C31.224 15.7123 29.8971 14.9341 28.446 14.4886C26.5891 13.928 24.6137 13.8896 22.7364 14.3777C20.8592 14.8658 19.1526 15.8615 17.804 17.2557C16.6268 18.4532 15.7353 19.9012 15.196 21.4915L9.30682 16.9318C11.4148 12.7516 15.0646 9.55406 19.4858 8.01421Z" fill="#E33629"/>
<path d="M7.74429 21.4487C8.06083 19.8799 8.58635 18.3607 9.30679 16.9316L15.196 21.5027C14.4256 23.7714 14.4256 26.2311 15.196 28.4998C13.2339 30.015 11.2708 31.5377 9.30679 33.068C7.50324 29.478 6.95319 25.3876 7.74429 21.4487Z" fill="#F8BD00"/>
<path d="M25.3608 21.6335H42.2699C42.8483 24.8066 42.6918 28.0701 41.8125 31.1733C41.0035 34.027 39.432 36.6061 37.267 38.6335C35.3664 37.1506 33.4574 35.679 31.5568 34.196C32.499 33.5605 33.3033 32.7412 33.9213 31.7873C34.5393 30.8335 34.9584 29.7646 35.1534 28.6449H25.3608C25.3579 26.3097 25.3608 23.9716 25.3608 21.6335Z" fill="#587DBD"/>
<path d="M9.30396 33.0682C11.268 31.553 13.231 30.0303 15.1932 28.5C15.9523 30.7278 17.396 32.6588 19.3182 34.017C20.517 34.8644 21.8793 35.4526 23.3182 35.7443C24.7359 36.0079 26.1902 36.0079 27.6079 35.7443C29.0216 35.505 30.3695 34.9728 31.5653 34.1818C33.4659 35.6648 35.375 37.1364 37.2755 38.6193C35.1957 40.5106 32.6603 41.8292 29.9176 42.446C26.8903 43.1577 23.7356 43.1236 20.7244 42.3466C18.3429 41.7107 16.1184 40.5898 14.1903 39.054C12.1496 37.4338 10.4828 35.392 9.30396 33.0682Z" fill="#319F43"/>
</svg>
