<svg width="14" height="20" viewBox="0 0 14 20" fill="none" xmlns="http://www.w3.org/2000/svg">
<path d="M14 6.34758L7.88244 0C7.88244 0 7.02677 2.60767 6.73958 4.5125C6.60375 5.41343 5.16474 8.53034 3.66149 11.6122C2.25397 15.5832 -9.53674e-07 18.4411 -9.53674e-07 18.4411C-9.53674e-07 18.4411 0.327088 19.6 1.30159 19.855C2.6888 20.2179 4.81548 19.7964 6.09524 19.7046C8.45096 19.5355 10.0523 18.8822 10.3492 18.3508C10.9206 17.328 11.7143 15.2522 12.381 12.3642C13.0476 9.47624 14 6.34758 14 6.34758Z" fill="url(#paint0_linear_59914_2544)" fill-opacity="0.2"/>
<defs>
<linearGradient id="paint0_linear_59914_2544" x1="9.71428" y1="-0.63175" x2="9.71428" y2="19.0509" gradientUnits="userSpaceOnUse">
<stop stop-color="#767676" stop-opacity="0"/>
<stop offset="1" stop-opacity="0.5"/>
</linearGradient>
</defs>
</svg>
