<svg width="40" height="33" viewBox="0 0 40 33" fill="none" xmlns="http://www.w3.org/2000/svg">
<path d="M16.1334 18.9718C15.9554 18.9377 16.03 19.0115 15.9898 19.1082C15.0135 21.5235 14.6517 24.3254 13.6927 26.7464C13.4227 27.4284 13.2562 27.991 12.4062 28.0763C10.7236 28.2411 7.44432 27.7978 5.80184 27.3034C4.66475 26.9567 4.45225 26.5532 4.2053 25.4165C3.80904 23.6207 3.8837 21.7451 3.9239 19.9322C3.9641 18.1193 3.96984 16.4314 4.03876 14.6753C2.91889 13.9649 1.40849 13.4534 0.386246 12.5895C-0.0789302 12.1917 -0.0444745 12.0553 0.0818697 11.487C0.35753 10.2196 2.15508 6.51418 3.16583 5.74695C3.57358 5.43438 3.82627 5.51394 4.29719 5.62192C5.49746 5.9004 10.2182 8.00887 10.8154 8.95796C11.4127 9.90705 10.982 9.40125 11.0854 9.6229C11.7515 8.11118 12.389 6.571 13.1471 5.09907C13.9051 3.62713 13.9741 3.4964 14.4277 2.83715C14.8642 2.212 14.9159 2.06992 15.7142 2.30861C17.1729 2.7519 20.0214 4.49097 21.2159 5.46847C22.2381 6.3039 22.152 6.76425 22.2496 8.03728C22.3702 9.57741 22.3358 11.1403 22.4392 12.6805C22.6344 15.6357 23.18 18.5683 23.8462 21.444L25.2704 16.0449C27.9064 6.77 28.2463 7.0754 31.8583 0.0815204C32.25 -0.351307 39.3324 1.03471 39.9584 1.99517C40.0675 2.15998 39.9353 2.09266 39.8664 2.30862C39.8664 2.30862 35.9868 8.10554 32.943 16.7667C31.8346 19.9322 31.1455 22.9671 30.3357 26.2008C30.0026 27.5364 29.3824 30.6849 28.3142 31.5089C27.6193 32.0431 25.6724 32.3387 24.7708 32.458C23.7026 32.6058 20.9862 32.9297 20.0731 32.5376C18.735 31.9693 17.7127 28.3093 17.3681 26.9794C16.6905 24.3595 16.2942 21.6656 16.1104 18.9661L16.1334 18.9718Z" fill="#D3FF33"/>
</svg>
